<svg height="512" viewBox="0 0 512 512" width="512" xmlns="http://www.w3.org/2000/svg"><path d="m128 112a8.005 8.005 0 0 0 8-8v-32a8 8 0 0 0 -16 0v32a8.005 8.005 0 0 0 8 8z"/><path d="m216 112a8.005 8.005 0 0 0 8-8v-32a8 8 0 0 0 -16 0v32a8.005 8.005 0 0 0 8 8z"/><path d="m198.109 358.234 16.719-18.89-20.656-3.852z"/><path d="m296 112a8.005 8.005 0 0 0 8-8v-32a8 8 0 0 0 -16 0v32a8.005 8.005 0 0 0 8 8z"/><path d="m376 112a8.005 8.005 0 0 0 8-8v-32a8 8 0 0 0 -16 0v32a8.005 8.005 0 0 0 8 8z"/><path d="m64 424a8.005 8.005 0 0 0 8 8h368a8.005 8.005 0 0 0 8-8v-264h-384zm336-40h16v16h-16zm-32 0h16v16h-16zm-16 16h-16v-16h16zm-161.9-165.508a88.143 88.143 0 1 1 20.523 133.745l-11.563 13.068a8 8 0 0 1 -13.874-3.938l-8.75-50.476a8 8 0 0 1 9.343-9.235l45.86 8.539a8.007 8.007 0 0 1 4.531 13.172l-14.687 16.6a71.95 71.95 0 1 0 -37.305-58.051 7.992 7.992 0 0 1 -7.407 8.547 7.867 7.867 0 0 1 -8.546-7.406 87.368 87.368 0 0 1 21.875-64.565zm102.742 75.93a8 8 0 1 1 -9.594 12.8l-32-24a8 8 0 0 1 -3.2-6.4v-48a8 8 0 0 1 16 0v44z"/><path d="m440 96h-40v8a24 24 0 0 1 -48 0v-8h-32v8a24 24 0 0 1 -48 0v-8h-32v8a24 24 0 0 1 -48 0v-8h-40v8a24 24 0 0 1 -48 0v-8h-32a8.005 8.005 0 0 0 -8 8v40h384v-40a8.005 8.005 0 0 0 -8-8z"/></svg>